<svg width="24" height="24" viewBox="0 0 24 24" fill="none" xmlns="http://www.w3.org/2000/svg"> <path d="M9.5 8C9.5 8 9.77556 11.4305 11.1725 12.8275C12.5695 14.2244 16 14.5 16 14.5C16 14.5 12.5695 14.7756 11.1725 16.1725C9.77556 17.5695 9.5 21 9.5 21C9.5 21 9.22444 17.5695 7.82749 16.1725C6.43053 14.7756 3 14.5 3 14.5C3 14.5 6.43053 14.2244 7.82749 12.8275C9.22444 11.4305 9.5 8 9.5 8Z" stroke="black" stroke-width="2" stroke-linecap="round" stroke-linejoin="round"/> <path d="M17 3C17 3 17.1696 5.1111 18.0292 5.97076C18.8889 6.83042 21 7 21 7C21 7 18.8889 7.16958 18.0292 8.02924C17.1696 8.8889 17 11 17 11C17 11 16.8304 8.8889 15.9708 8.02924C15.1111 7.16958 13 7 13 7C13 7 15.1111 6.83042 15.9708 5.97076C16.8304 5.1111 17 3 17 3Z" stroke="black" stroke-width="2" stroke-linecap="round" stroke-linejoin="round"/> </svg>
